# xmcd
#
# Track frame offsets:
#	150
#	14145
#	25634
#	39112
#	51991
#	62704
#	75421
#	88695
#	104137
#	115819
#	124447
#
# Disc length: 1933 seconds
#
# Revision: 0
# Processed by: cddbd v1.5.1PL0 Copyright (c) Steve Scherf et al.
# Submitted via: dBpowerAMP V4.0
#
DISCID=8f078b0b
DTITLE=Domino Kings - Some Kind Of Sign
DYEAR=1900
DGENRE=Country
TTITLE0=Some Kind Of Sign
TTITLE1=Walk Away If You Want To
TTITLE2=A Million Miles From Here
TTITLE3=Pain In My Past
TTITLE4=Dark Side Of The Moon
TTITLE5=Don't Want To Do That Again
TTITLE6=It's All Over But The Crying
TTITLE7=Lying Next To Me
TTITLE8=Every Night About This Time
TTITLE9=You Tear Me Up
TTITLE10=Bridges I've Burned
EXTD=
EXTT0=
EXTT1=
EXTT2=
EXTT3=
EXTT4=
EXTT5=
EXTT6=
EXTT7=
EXTT8=
EXTT9=
EXTT10=
PLAYORDER=
